<svg width="193" height="43" viewBox="0 0 193 43" fill="none" xmlns="http://www.w3.org/2000/svg">
<path fill-rule="evenodd" clip-rule="evenodd" d="M183.223 18.6729V28.824H183.571C184.676 28.824 185.479 28.4424 185.975 27.6904C186.47 26.9328 186.789 25.8106 186.926 24.3352H187.416V34.3097H186.926C186.824 33.2217 186.607 32.3331 186.277 31.6381C185.946 30.9431 185.559 30.476 185.12 30.2367C184.687 30.0032 184.049 29.8836 183.218 29.8836V37.7846C183.218 38.8328 183.258 39.4708 183.343 39.71C183.423 39.9436 183.577 40.1373 183.799 40.2854C184.021 40.4392 184.38 40.5132 184.881 40.5132H185.923C187.553 40.5132 188.857 40.1031 189.837 39.2771C190.822 38.4568 191.523 37.2036 191.95 35.5117H192.423L191.643 41.5671H176.57V41.0487H177.151C177.658 41.0487 178.062 40.9462 178.37 40.7525C178.592 40.6215 178.757 40.3936 178.883 40.0746C178.968 39.8524 179.025 39.2657 179.025 38.303V20.8432C179.025 19.9774 179.008 19.4476 178.957 19.2539C178.877 18.9292 178.712 18.6729 178.484 18.4963C178.153 18.2342 177.709 18.1032 177.145 18.1032H176.564V17.5791H191.159V23.213H190.669C190.418 21.8344 190.071 20.8489 189.62 20.2508C189.17 19.6527 188.532 19.214 187.712 18.9292C187.234 18.764 186.334 18.6729 185.012 18.6729H183.212H183.223ZM166.533 29.7981L172.662 38.1834C173.528 39.3625 174.274 40.1657 174.901 40.5873C175.356 40.8835 175.835 41.0373 176.342 41.0373V41.5557H167.267V41.0373C167.843 40.9803 168.213 40.8778 168.378 40.7411C168.549 40.6044 168.635 40.4278 168.635 40.2227C168.635 39.8296 168.242 39.0834 167.45 38.0011L163.451 32.504L162.807 33.0964V38.2916C162.807 39.2828 162.858 39.9037 162.967 40.1486C163.069 40.3936 163.263 40.5987 163.553 40.7696C163.85 40.9462 164.311 41.0316 164.955 41.0316V41.55H156.159V41.0316H156.74C157.247 41.0316 157.652 40.9291 157.959 40.7354C158.182 40.6044 158.352 40.3822 158.472 40.0575C158.569 39.8353 158.614 39.2486 158.614 38.2859V25.7593C158.614 24.7852 158.569 24.1757 158.472 23.9307C158.381 23.6858 158.187 23.475 157.902 23.2927C157.612 23.1104 157.225 23.0193 156.74 23.0193H156.159V22.4952H164.835V23.0193C164.248 23.0193 163.793 23.1104 163.485 23.2984C163.263 23.4351 163.086 23.6516 162.955 23.9592C162.853 24.1928 162.796 24.7909 162.796 25.7593V31.6837L169.267 25.9701C170.167 25.1726 170.617 24.5346 170.617 24.0617C170.617 23.7029 170.435 23.4237 170.064 23.2187C169.876 23.1161 169.409 23.0535 168.657 23.0193V22.4952H175.459V23.0193C174.849 23.0649 174.377 23.1845 174.029 23.3725C173.676 23.5662 172.878 24.2156 171.631 25.3207L166.527 29.7924L166.533 29.7981ZM146.054 29.7981L152.183 38.1834C153.055 39.3625 153.795 40.1657 154.422 40.5873C154.878 40.8835 155.356 41.0373 155.863 41.0373V41.5557H146.789V41.0373C147.364 40.9803 147.734 40.8778 147.899 40.7411C148.07 40.6044 148.156 40.4278 148.156 40.2227C148.156 39.8296 147.763 39.0834 146.971 38.0011L142.972 32.504L142.328 33.0964V38.2916C142.328 39.2828 142.379 39.9037 142.488 40.1486C142.59 40.3936 142.784 40.5987 143.074 40.7696C143.371 40.9462 143.832 41.0316 144.476 41.0316V41.55H135.68V41.0316H136.261C136.768 41.0316 137.173 40.9291 137.48 40.7354C137.703 40.6044 137.874 40.3822 137.993 40.0575C138.09 39.8353 138.136 39.2486 138.136 38.2859V25.7593C138.136 24.7852 138.09 24.1757 137.993 23.9307C137.902 23.6858 137.708 23.475 137.424 23.2927C137.133 23.1104 136.746 23.0193 136.261 23.0193H135.68V22.4952H144.356V23.0193C143.769 23.0193 143.314 23.1104 143.006 23.2984C142.784 23.4351 142.607 23.6516 142.482 23.9592C142.379 24.1928 142.323 24.7909 142.323 25.7593V31.6837L148.794 25.9701C149.694 25.1726 150.144 24.5346 150.144 24.0617C150.144 23.7029 149.962 23.4237 149.591 23.2187C149.403 23.1161 148.936 23.0535 148.19 23.0193V22.4952H154.992V23.0193C154.382 23.0649 153.909 23.1845 153.562 23.3725C153.209 23.5662 152.411 24.2156 151.158 25.3207L146.054 29.7924V29.7981ZM134.478 41.0373V41.5557H125.364V41.0373H125.945C126.452 41.0373 126.857 40.9348 127.164 40.7411C127.386 40.6101 127.557 40.3879 127.677 40.0632C127.774 39.841 127.819 39.2543 127.819 38.2916V25.765C127.819 24.7909 127.774 24.1814 127.677 23.9364C127.586 23.6915 127.398 23.4807 127.107 23.2984C126.822 23.1161 126.429 23.025 125.945 23.025H125.364V22.5009H134.478V23.025H133.897C133.39 23.025 132.986 23.1218 132.678 23.3155C132.456 23.4522 132.28 23.6687 132.149 23.9934C132.057 24.2156 132.006 24.808 132.006 25.7593V38.2859C132.006 39.26 132.057 39.8695 132.149 40.1145C132.251 40.3594 132.445 40.5702 132.73 40.7525C133.02 40.9405 133.402 41.0316 133.892 41.0316H134.473L134.478 41.0373ZM111.203 35.0617L117.269 22.5066H124.367V23.0307H123.803C123.291 23.0307 122.875 23.1275 122.567 23.3212C122.351 23.4579 122.18 23.6744 122.049 23.982C121.958 24.2042 121.906 24.7909 121.906 25.7365V38.2916C121.906 39.2657 121.952 39.8752 122.049 40.1202C122.146 40.3651 122.339 40.5759 122.63 40.7582C122.926 40.9462 123.308 41.0373 123.803 41.0373H124.367V41.5557H115.258V41.0373H115.822C116.341 41.0373 116.751 40.9348 117.059 40.7411C117.269 40.6101 117.446 40.3879 117.571 40.0632C117.662 39.841 117.714 39.2543 117.714 38.2916V24.1757L111.032 41.5557H110.718L103.928 24.301V37.7162C103.928 38.6505 103.951 39.2315 103.997 39.448C104.105 39.9151 104.35 40.2968 104.726 40.5873C105.096 40.8835 105.683 41.0316 106.48 41.0316V41.55H100.51V41.0316H100.693C101.08 41.043 101.439 40.9689 101.775 40.8265C102.111 40.6841 102.362 40.4847 102.533 40.2455C102.703 40.0005 102.834 39.6588 102.931 39.2201C102.948 39.1176 102.96 38.6391 102.96 37.7846V25.7308C102.96 24.7681 102.914 24.17 102.817 23.925C102.72 23.6858 102.527 23.475 102.236 23.2927C101.94 23.1104 101.553 23.0193 101.063 23.0193H100.51V22.4952H107.631L111.203 35.0503V35.0617ZM82.9764 23.1389C81.3757 23.1389 80.1681 24.0333 79.3307 25.8106C78.6528 27.2689 78.3167 29.3709 78.3167 32.0995C78.3167 35.3522 78.8408 37.7504 79.8832 39.3056C80.6124 40.3936 81.6321 40.9348 82.948 40.9348C83.8309 40.9348 84.5658 40.7012 85.1582 40.2341C85.9101 39.636 86.4969 38.6733 86.9184 37.3574C87.34 36.0415 87.5507 34.3268 87.5507 32.2134C87.5507 29.6899 87.3343 27.8043 86.907 26.5625C86.4741 25.3093 85.9329 24.4263 85.2664 23.9136C84.6056 23.401 83.8423 23.1389 82.9764 23.1389ZM82.8169 22.2446C85.5968 22.1306 87.8526 23.0193 89.5901 24.8991C91.3218 26.7847 92.1934 29.1373 92.1934 31.9685C92.1934 34.3838 91.5497 36.5086 90.2509 38.3429C88.5362 40.781 86.1152 42 82.9821 42C79.8491 42 77.4224 40.8379 75.7077 38.5138C74.3576 36.6795 73.6741 34.5034 73.6741 31.9856C73.6741 29.1544 74.557 26.7961 76.3172 24.9105C78.0831 23.0193 80.2478 22.1363 82.8169 22.2503V22.2446ZM72.0449 41.043V41.5614H62.9305V41.043H63.5115C64.0185 41.043 64.423 40.9405 64.7306 40.7468C64.9527 40.6158 65.1236 40.3936 65.2432 40.0689C65.3401 39.8467 65.3914 39.26 65.3914 38.2973V25.7707C65.3914 24.7966 65.3401 24.1871 65.2432 23.9421C65.1521 23.6972 64.9641 23.4864 64.6736 23.3041C64.3888 23.1218 63.9957 23.0307 63.5115 23.0307H62.9305V22.5066H72.0449V23.0307H71.4638C70.9568 23.0307 70.5524 23.1275 70.2448 23.3212C70.0226 23.4579 69.846 23.6744 69.715 23.9991C69.6238 24.2213 69.5726 24.8137 69.5726 25.765V38.2916C69.5726 39.2657 69.6182 39.8752 69.715 40.1202C69.8175 40.3651 70.0112 40.5759 70.296 40.7582C70.5866 40.9462 70.9739 41.0373 71.4581 41.0373H72.0392L72.0449 41.043ZM50.3811 23.5377V31.883H51.1159C52.3065 31.883 53.1952 31.7691 53.7876 31.5299C54.38 31.2906 54.8471 30.8577 55.1832 30.2367C55.5193 29.6101 55.6902 28.8012 55.6902 27.7986C55.6902 26.346 55.3769 25.2751 54.756 24.5801C54.1408 23.8852 53.1382 23.5377 51.7539 23.5377H50.3811ZM50.3811 32.8799V38.2232C50.3811 39.2543 50.4381 39.9037 50.552 40.1657C50.6716 40.4335 50.871 40.6499 51.1615 40.8094C51.4577 40.9689 51.9989 41.0487 52.7964 41.0487V41.5671H43.87V41.0487C44.6789 41.0487 45.2201 40.9689 45.5106 40.798C45.7954 40.6328 46.0005 40.4221 46.1144 40.16C46.2283 39.898 46.2853 39.2543 46.2853 38.2232V25.8618C46.2853 24.8308 46.2283 24.1814 46.1144 23.9136C45.9948 23.6459 45.7954 23.4351 45.4992 23.2756C45.2087 23.1104 44.6675 23.0364 43.8643 23.0364V22.5123H51.9647C54.0724 22.5123 55.6162 22.6775 56.596 22.9908C57.5701 23.3098 58.3676 23.8966 58.9885 24.7567C59.6037 25.6112 59.9113 26.6195 59.9113 27.7702C59.9113 29.1772 59.4442 30.3336 58.5214 31.2564C57.929 31.8375 57.103 32.2704 56.0434 32.5609L60.236 39.0093C60.7829 39.8467 61.176 40.3594 61.4038 40.5702C61.757 40.8607 62.1614 41.0202 62.6286 41.0487V41.5671H57.1371L51.5204 32.8799H50.3754H50.3811ZM34.8866 35.1016L32.2947 28.5392L29.6174 35.1016H34.8866ZM35.3253 36.144H29.1674L28.4325 38.0011C28.1933 38.6163 28.0736 39.129 28.0736 39.5277C28.0736 40.0632 28.273 40.4563 28.6661 40.7069C28.8939 40.8607 29.4636 40.9689 30.375 41.0487V41.5671H24.576V41.0487C25.1969 40.9462 25.7153 40.6613 26.114 40.1942C26.5185 39.7328 27.0198 38.7758 27.6065 37.3232L33.8442 22.1249H34.0891L40.3724 37.7504C40.9762 39.2315 41.4661 40.16 41.8534 40.5474C42.1497 40.8379 42.5598 41.0088 43.0896 41.0544V41.5728H34.6531V41.0544H35.0006C35.6784 41.0544 36.157 40.9518 36.4247 40.7411C36.6127 40.593 36.7095 40.3765 36.7095 40.0917C36.7095 39.9265 36.681 39.7499 36.6298 39.5733C36.6127 39.4879 36.4873 39.1347 36.2424 38.5194L35.3139 36.144H35.3253ZM10.5512 33.8825L14.835 17.5734L23.8981 17.5222V18.0462H23.3341C22.8215 18.0462 22.4113 18.1431 22.1037 18.3368C21.8872 18.4735 21.7163 18.69 21.5853 18.9976C21.4885 19.2197 21.4429 19.8122 21.4429 20.7521V38.3087C21.4429 39.2828 21.4885 39.8923 21.5853 40.1373C21.6822 40.3822 21.8758 40.593 22.1664 40.7753C22.4626 40.9632 22.8442 41.0544 23.3398 41.0544H23.9038V41.5728H14.7951V41.0544H15.3591C15.8774 41.0544 16.2819 40.9519 16.5952 40.7582C16.806 40.6272 16.9769 40.3993 17.1079 40.0803C17.199 39.8581 17.2503 39.2714 17.2503 38.3087V19.1969L10.5683 41.5728H10.255L3.46477 19.3223V37.7333C3.46477 38.6676 3.48186 39.2486 3.53313 39.4651C3.63567 39.9322 3.88631 40.3138 4.26228 40.6044C4.63255 40.9006 5.21929 41.0487 6.0168 41.0487V41.5671H0.046875V41.0487H0.229163C0.616525 41.0601 0.975404 40.986 1.3115 40.8436C1.64759 40.7012 1.89824 40.5018 2.06913 40.2626C2.24003 40.0176 2.37674 39.6758 2.46789 39.2372C2.49067 39.1347 2.49637 38.6562 2.49637 37.8017V20.7464C2.49637 19.7837 2.4508 19.1799 2.35396 18.9463C2.25711 18.707 2.06343 18.4963 1.77291 18.314C1.4767 18.1317 1.08933 18.0406 0.599435 18.0406H0.046875V17.5165H7.16749L10.5512 33.8768V33.8825Z" fill="#292421"/>
<path d="M183.218 18.6729V28.824H183.566C184.671 28.824 185.474 28.4424 185.97 27.6904C186.465 26.9328 186.779 25.8106 186.921 24.3352H187.411V34.3097H186.921C186.818 33.2217 186.602 32.3331 186.272 31.6381C185.941 30.9431 185.554 30.476 185.115 30.2367C184.682 30.0032 184.044 29.8836 183.213 29.8836V37.7846C183.213 38.8328 183.252 39.4708 183.338 39.71C183.418 39.9436 183.571 40.1373 183.794 40.2854C184.01 40.4392 184.375 40.5132 184.876 40.5132H185.913C187.542 40.5132 188.846 40.1031 189.826 39.2771C190.812 38.4568 191.512 37.2036 191.94 35.5117H192.412L191.632 41.5671H176.559V41.0487H177.14C177.647 41.0487 178.052 40.9462 178.359 40.7525C178.581 40.6215 178.747 40.3936 178.872 40.0746C178.957 39.8524 179.014 39.2657 179.014 38.303V20.8432C179.014 19.9831 178.997 19.4476 178.946 19.2539C178.866 18.9292 178.701 18.6729 178.473 18.4963C178.143 18.2342 177.698 18.1032 177.134 18.1032H176.553V17.5791H191.148V23.213H190.658C190.407 21.8344 190.06 20.8489 189.61 20.2508C189.16 19.6527 188.522 19.214 187.701 18.9292C187.223 18.764 186.323 18.6729 185.001 18.6729H183.201H183.218ZM166.528 29.7981L172.657 38.1834C173.523 39.3625 174.269 40.1657 174.896 40.5873C175.351 40.8835 175.83 41.0373 176.337 41.0373V41.5557H167.262V41.0373C167.838 40.9803 168.208 40.8778 168.373 40.7411C168.544 40.6044 168.63 40.4278 168.63 40.2227C168.63 39.8296 168.237 39.0834 167.445 38.0011L163.446 32.504L162.802 33.0964V38.2916C162.802 39.2828 162.853 39.9037 162.962 40.1486C163.064 40.3936 163.258 40.5987 163.548 40.7696C163.845 40.9462 164.306 41.0316 164.95 41.0316V41.55H156.154V41.0316H156.735C157.242 41.0316 157.647 40.9291 157.954 40.7354C158.177 40.6044 158.347 40.3822 158.467 40.0575C158.564 39.8353 158.609 39.2486 158.609 38.2859V25.7593C158.609 24.7852 158.564 24.1757 158.467 23.9307C158.376 23.6858 158.182 23.475 157.897 23.2927C157.607 23.1104 157.219 23.0193 156.735 23.0193H156.154V22.4952H164.83V23.0193C164.243 23.0193 163.788 23.1104 163.48 23.2984C163.258 23.4351 163.081 23.6516 162.956 23.9592C162.853 24.1928 162.796 24.7966 162.796 25.7593V31.6837L169.268 25.9701C170.168 25.1726 170.618 24.5346 170.618 24.0617C170.618 23.7029 170.435 23.4237 170.065 23.2187C169.877 23.1161 169.41 23.0535 168.664 23.0193V22.4952H175.465V23.0193C174.856 23.0649 174.383 23.1845 174.036 23.3725C173.682 23.5662 172.885 24.2156 171.637 25.3207L166.533 29.7924L166.528 29.7981ZM146.049 29.7981L152.178 38.1834C153.05 39.3625 153.79 40.1657 154.417 40.5873C154.873 40.8835 155.351 41.0373 155.858 41.0373V41.5557H146.784V41.0373C147.359 40.9803 147.729 40.8778 147.894 40.7411C148.065 40.6044 148.151 40.4278 148.151 40.2227C148.151 39.8296 147.758 39.0834 146.966 38.0011L142.967 32.504L142.323 33.0964V38.2916C142.323 39.2828 142.374 39.9037 142.483 40.1486C142.585 40.3936 142.779 40.5987 143.069 40.7696C143.36 40.9462 143.827 41.0316 144.471 41.0316V41.55H135.675V41.0316H136.256C136.763 41.0316 137.168 40.9291 137.475 40.7354C137.698 40.6044 137.869 40.3822 137.988 40.0575C138.085 39.8353 138.131 39.2486 138.131 38.2859V25.7593C138.131 24.7852 138.085 24.1757 137.988 23.9307C137.897 23.6858 137.703 23.475 137.418 23.2927C137.128 23.1104 136.741 23.0193 136.256 23.0193H135.675V22.4952H144.351V23.0193C143.764 23.0193 143.309 23.1104 143.007 23.2984C142.785 23.4351 142.608 23.6516 142.483 23.9592C142.38 24.1928 142.323 24.7966 142.323 25.7593V31.6837L148.794 25.9701C149.694 25.1726 150.144 24.5346 150.144 24.0617C150.144 23.7029 149.962 23.4237 149.592 23.2187C149.404 23.1161 148.937 23.0535 148.191 23.0193V22.4952H154.992V23.0193C154.383 23.0649 153.91 23.1845 153.562 23.3725C153.209 23.5662 152.412 24.2156 151.164 25.3207L146.06 29.7924L146.049 29.7981ZM134.473 41.0373V41.5557H125.359V41.0373H125.94C126.447 41.0373 126.851 40.9348 127.159 40.7411C127.381 40.6101 127.552 40.3879 127.672 40.0632C127.769 39.841 127.814 39.2543 127.814 38.2916V25.765C127.814 24.7909 127.763 24.1814 127.672 23.9364C127.581 23.6915 127.393 23.4807 127.102 23.2984C126.817 23.1161 126.424 23.025 125.94 23.025H125.359V22.5009H134.473V23.025H133.892C133.385 23.025 132.981 23.1218 132.673 23.3155C132.451 23.4522 132.275 23.6687 132.149 23.9934C132.058 24.2156 132.007 24.808 132.007 25.7593V38.2859C132.007 39.26 132.052 39.8695 132.149 40.1145C132.252 40.3594 132.445 40.5702 132.73 40.7525C133.021 40.9405 133.408 41.0316 133.892 41.0316H134.473V41.0373ZM111.198 35.0617L117.264 22.5066H124.362V23.0307H123.798C123.285 23.0307 122.87 23.1275 122.562 23.3212C122.346 23.4579 122.175 23.6744 122.044 23.982C121.952 24.2042 121.901 24.7909 121.901 25.7365V38.2916C121.901 39.2657 121.947 39.8752 122.044 40.1202C122.14 40.3651 122.334 40.5759 122.625 40.7582C122.921 40.9462 123.303 41.0373 123.798 41.0373H124.362V41.5557H115.253V41.0373H115.817C116.336 41.0373 116.746 40.9348 117.054 40.7411C117.264 40.6101 117.441 40.3879 117.566 40.0632C117.657 39.841 117.709 39.2543 117.709 38.2916V24.1757L111.027 41.5557H110.713L103.923 24.301V37.7162C103.923 38.6505 103.946 39.2315 103.991 39.448C104.1 39.9151 104.345 40.2968 104.721 40.5873C105.091 40.8835 105.678 41.0316 106.475 41.0316V41.55H100.505V41.0316H100.687C101.075 41.043 101.434 40.9689 101.77 40.8265C102.106 40.6841 102.357 40.4847 102.527 40.2455C102.698 40.0005 102.829 39.6531 102.926 39.2201C102.943 39.1176 102.955 38.6391 102.955 37.7846V25.7308C102.955 24.7681 102.909 24.17 102.812 23.925C102.715 23.6858 102.522 23.475 102.231 23.2927C101.935 23.1104 101.548 23.0193 101.058 23.0193H100.505V22.4952H107.626L111.198 35.0503V35.0617ZM82.9714 23.1389C81.3707 23.1389 80.163 24.0333 79.3256 25.8106C78.6478 27.2689 78.3117 29.3709 78.3117 32.0995C78.3117 35.3522 78.8357 37.7504 79.8782 39.3056C80.6073 40.3936 81.627 40.9348 82.9429 40.9348C83.8259 40.9348 84.5607 40.7012 85.1531 40.2341C85.9051 39.636 86.4918 38.6733 86.9134 37.3574C87.3349 36.0415 87.5457 34.3268 87.5457 32.2134C87.5457 29.6899 87.3292 27.8043 86.902 26.5625C86.4747 25.3093 85.9279 24.4263 85.2614 23.9136C84.6006 23.401 83.8373 23.1389 82.9714 23.1389ZM82.8119 22.2446C85.5918 22.1306 87.8476 23.0193 89.585 24.8991C91.3168 26.7847 92.1883 29.1373 92.1883 31.9685C92.1883 34.3838 91.5446 36.5086 90.2458 38.3429C88.5312 40.781 86.1102 41.9943 82.9771 41.9943C79.844 41.9943 77.4173 40.8322 75.7027 38.5081C74.3526 36.6738 73.669 34.4977 73.669 31.9799C73.669 29.1487 74.552 26.7904 76.3122 24.9048C78.0781 23.0136 80.2371 22.1306 82.8119 22.2446ZM72.0398 41.043V41.5614H62.9254V41.043H63.5065C64.0135 41.043 64.4179 40.9405 64.7255 40.7468C64.9477 40.6158 65.1186 40.3936 65.2382 40.0689C65.335 39.8467 65.3863 39.26 65.3863 38.2973V25.7707C65.3863 24.7966 65.3407 24.1871 65.2382 23.9421C65.1471 23.6972 64.9591 23.4864 64.6686 23.3041C64.3837 23.1218 63.9907 23.0307 63.5065 23.0307H62.9254V22.5066H72.0398V23.0307H71.4588C70.9518 23.0307 70.5473 23.1275 70.2397 23.3212C70.0176 23.4579 69.841 23.6744 69.7156 23.9991C69.6245 24.2213 69.5732 24.8137 69.5732 25.765V38.2916C69.5732 39.2657 69.6188 39.8752 69.7156 40.1202C69.8182 40.3651 70.0119 40.5759 70.2967 40.7582C70.5872 40.9462 70.9746 41.0373 71.4588 41.0373H72.0398V41.043ZM50.3761 23.5377V31.883H51.1109C52.3015 31.883 53.1901 31.7691 53.7826 31.5299C54.375 31.2906 54.8421 30.8577 55.1782 30.2367C55.5143 29.6101 55.6852 28.8012 55.6852 27.7986C55.6852 26.346 55.3719 25.2751 54.751 24.5801C54.13 23.8852 53.1332 23.5377 51.7489 23.5377H50.3761ZM50.3761 32.8799V38.2232C50.3761 39.2543 50.433 39.9037 50.5469 40.1657C50.6666 40.4335 50.866 40.6499 51.1565 40.8094C51.4527 40.9689 51.9939 41.0487 52.7914 41.0487V41.5671H43.865V41.0487C44.6739 41.0487 45.215 40.9689 45.5055 40.798C45.7904 40.6328 45.9898 40.4221 46.1094 40.16C46.2233 39.898 46.2803 39.2543 46.2803 38.2232V25.8618C46.2803 24.8308 46.2233 24.1814 46.1094 23.9136C45.9898 23.6459 45.7904 23.4351 45.4942 23.2756C45.2036 23.1104 44.6625 23.0364 43.8593 23.0364V22.5123H51.9597C54.0674 22.5123 55.6111 22.6775 56.5909 22.9908C57.565 23.3098 58.3625 23.8966 58.9835 24.7567C59.5987 25.6112 59.9063 26.6195 59.9063 27.7702C59.9063 29.1772 59.4392 30.3336 58.5163 31.2564C57.9239 31.8375 57.0979 32.2704 56.0384 32.5609L60.231 39.0093C60.7779 39.841 61.1709 40.3594 61.3988 40.5702C61.7519 40.8607 62.1564 41.0202 62.6235 41.0487V41.5671H57.1321L51.5154 32.8799H50.3704H50.3761ZM34.8816 35.1016L32.2897 28.5392L29.6123 35.1016H34.8816ZM35.3202 36.144H29.1623L28.4275 38.0011C28.1882 38.6163 28.0686 39.129 28.0686 39.5277C28.0686 40.0632 28.268 40.4563 28.661 40.7069C28.8889 40.8607 29.4585 40.9689 30.37 41.0487V41.5671H24.5709V41.0487C25.1919 40.9462 25.7102 40.6613 26.109 40.1942C26.5134 39.7328 27.0147 38.7758 27.6015 37.3232L33.8391 22.1249H34.0841L40.3673 37.7447C40.9711 39.2258 41.461 40.1543 41.8484 40.5417C42.1446 40.8322 42.5548 41.0031 43.0845 41.0487V41.5671H34.648V41.0487H34.9955C35.6734 41.0487 36.1519 40.9462 36.4196 40.7354C36.6076 40.5873 36.7045 40.3708 36.7045 40.086C36.7045 39.9151 36.676 39.7442 36.6247 39.5676C36.6076 39.4822 36.4766 39.129 36.2374 38.5138L35.3088 36.1383L35.3202 36.144ZM10.5462 33.8825L14.8299 17.5734L23.893 17.5222V18.0462H23.3291C22.8164 18.0462 22.4006 18.1431 22.093 18.3368C21.8765 18.4735 21.7056 18.69 21.5746 18.9976C21.4834 19.2197 21.4322 19.8122 21.4322 20.7521V38.3087C21.4322 39.2828 21.4777 39.8923 21.5746 40.1373C21.6714 40.3822 21.8651 40.593 22.1556 40.7753C22.4518 40.9632 22.8335 41.0544 23.3291 41.0544H23.893V41.5728H14.7844V41.0544H15.3483C15.8667 41.0544 16.2711 40.9519 16.5844 40.7582C16.7952 40.6272 16.9661 40.405 17.0971 40.0803C17.1883 39.8581 17.2395 39.2714 17.2395 38.3087V19.1969L10.5576 41.5728H10.2442L3.45403 19.3223V37.7333C3.45403 38.6676 3.47112 39.2486 3.52239 39.4651C3.62492 39.9322 3.87557 40.3138 4.25154 40.6044C4.62181 40.9006 5.20855 41.0487 6.00606 41.0487V41.5671H0.0361328V41.0487H0.21842C0.605782 41.0601 0.964661 40.986 1.30075 40.8436C1.63685 40.7012 1.88749 40.5018 2.05839 40.2626C2.22928 40.0176 2.366 39.6758 2.45714 39.2372C2.47993 39.1347 2.48563 38.6562 2.48563 37.8017V20.7521C2.48563 19.7894 2.44005 19.1855 2.34321 18.9463C2.24637 18.707 2.05269 18.4963 1.76217 18.314C1.46595 18.1317 1.07859 18.0406 0.588693 18.0406H0.0361328V17.5165H7.15675L10.5405 33.8768L10.5462 33.8825Z" stroke="#292421" stroke-width="0.0714775" stroke-miterlimit="11.41"/>
<path fill-rule="evenodd" clip-rule="evenodd" d="M126.425 18.0348H173.221V19.2766H126.425V18.0348ZM26.9014 18.0348H78.2667V19.2766H26.9014V18.0348Z" fill="#E30613"/>
<path fill-rule="evenodd" clip-rule="evenodd" d="M113.715 0.307329C111.835 1.96501 109.664 4.17525 107.203 6.94374C105.95 8.35078 104.822 9.73503 103.825 11.0965C102.732 12.6061 102.19 13.5745 102.19 13.996C102.19 14.3549 102.481 14.5315 103.062 14.5315C104.15 14.5315 105.637 14.1042 107.517 13.2612C109.305 12.4693 110.49 11.7516 111.066 11.1136C111.413 11.0452 111.635 11.1136 111.726 11.313C111.009 12.0307 109.733 12.9478 107.898 13.7681C105.927 14.6568 104.264 15.1011 103.011 15.1011C100.92 15.1011 99.9233 14.3264 99.9233 13.0675C99.9233 12.4579 100.305 11.6832 101.074 10.7433C101.558 10.1224 102.453 9.17677 103.751 7.92354C105.284 6.47663 106.884 4.96706 108.553 3.39483L108.172 3.53154C106.526 4.80186 103.973 6.72728 100.516 9.2964C99.0289 10.3446 97.058 11.5465 94.5971 12.9137C92.6033 14.0131 91.3728 14.6511 90.9057 14.822C90.6722 14.9131 90.5013 14.9416 90.3817 14.9017C90.2165 14.8505 90.2335 14.7309 90.4158 14.5429C91.0424 13.9846 92.159 12.8738 93.7597 11.2047C95.7762 8.85777 97.6219 6.86399 99.2967 5.2234C100.294 4.255 101.421 3.18406 102.675 2.00488L102.43 1.9878C100.271 3.30938 96.87 5.45126 92.233 8.40774C89.7493 10.0369 86.6732 11.4326 83.1015 12.6004C78.3222 14.1783 73.4802 15.1125 68.678 15.1125C65.8013 15.1125 63.3404 14.6853 61.5745 13.9846C59.6946 13.2441 58.9883 12.1503 58.9883 10.8515C58.9883 9.03436 60.8795 7.47922 64.662 6.18042C68.2793 4.94997 72.4263 4.14676 77.086 4.14676C79.1994 4.14676 81.1249 4.27778 82.868 4.54552C84.1896 4.75629 85.0953 5.16644 85.5852 5.40569C85.608 5.44557 85.5282 5.48544 85.3403 5.52532C85.158 5.56519 84.9586 5.57089 84.7478 5.54241C83.1243 5.04111 80.709 4.79047 77.5076 4.79047C73.5143 4.79047 69.6863 5.47975 66.0178 6.86969C62.3492 8.25394 60.7542 9.70654 60.7542 11.2332C60.7542 13.432 63.3518 14.3492 68.923 14.3492C72.8478 14.3492 76.7215 13.6941 80.9198 12.4636C84.839 11.3243 88.3594 10.0825 91.1906 8.29381C98.8239 3.46888 103.296 0.797228 104.594 0.267454C104.805 0.187703 105.198 0.107951 105.779 0.0281999C106.246 -0.0401581 106.474 0.0168083 106.474 0.187703C106.474 0.227579 106.429 0.273149 106.338 0.324418C105.688 0.654814 104.526 1.73715 102.857 3.56572C101.513 5.12656 99.61 7.26275 97.1491 9.96289C95.8731 11.2047 94.8648 12.082 94.1186 12.5833L94.2211 12.6402C94.5458 12.4807 95.5313 11.8541 97.1776 10.7547C99.2682 9.36475 101.171 8.02608 102.885 6.73867C105.625 4.72211 108.468 2.64289 111.413 0.50101C111.578 0.381384 111.994 0.250364 112.666 0.102255C113.014 0.033897 113.304 0.00541335 113.538 0.00541335C113.908 0.00541335 113.965 0.113648 113.715 0.324418" fill="#E30613"/>
<path fill-rule="evenodd" clip-rule="evenodd" d="M102.338 11.1589L102.014 11.3184C102.082 11.3184 102.145 11.307 102.207 11.29C102.361 11.2558 102.43 11.2216 102.412 11.1931L102.338 11.1589ZM125.842 6.95493C124.276 8.33348 122.47 10.1791 120.419 12.4862C119.377 13.654 118.437 14.8104 117.605 15.944C116.694 17.2029 116.244 18.0061 116.244 18.3593C116.244 18.6555 116.483 18.8036 116.967 18.8036C117.873 18.8036 119.115 18.4504 120.681 17.7441C122.168 17.0833 123.159 16.4852 123.638 15.9554C123.928 15.8984 124.11 15.9554 124.19 16.1206C123.592 16.7187 122.527 17.482 121 18.1656C119.354 18.9062 117.975 19.2764 116.927 19.2764C115.184 19.2764 114.358 18.627 114.358 17.5789C114.358 17.0719 114.677 16.4225 115.315 15.6421C115.719 15.1237 116.466 14.3376 117.548 13.2894C118.824 12.0875 120.157 10.8285 121.553 9.51265L121.234 9.62658C119.861 10.6861 117.736 12.2868 114.854 14.4287C113.617 15.3003 111.971 16.3029 109.926 17.4422C108.263 18.3593 107.237 18.8891 106.85 19.0315C106.656 19.1112 106.514 19.1283 106.417 19.0999C106.28 19.0543 106.292 18.9574 106.446 18.8036C106.97 18.3422 107.898 17.4137 109.231 16.0237C110.912 14.0698 112.45 12.4065 113.845 11.0393C114.677 10.2361 115.617 9.34176 116.659 8.35626L116.454 8.50437C114.654 9.60949 112.25 11.3982 108.308 13.711C106.149 14.9756 103.358 16.2801 100.379 17.2485C96.397 18.5644 92.3354 19.2707 88.3307 19.2707C85.9325 19.2707 83.8818 18.9176 82.4121 18.3308C80.8455 17.7156 80.2588 16.7985 80.2588 15.7161C80.2588 14.5313 81.2272 13.4774 83.1697 12.5546L83.859 13.4261C82.3893 14.2635 81.7228 15.1351 81.7228 16.0294C81.7228 17.8637 83.8875 18.6213 88.5244 18.6213C91.7942 18.6213 95.0184 18.0745 98.5217 17.0491C101.792 16.0978 104.72 15.0667 107.078 13.5742C113.441 9.55822 117.161 7.3252 118.243 6.88657C118.42 6.81821 118.744 6.75555 119.228 6.68719C119.616 6.63022 119.81 6.67579 119.81 6.81821C119.81 6.85239 119.77 6.89226 119.696 6.93214C119.154 7.20557 118.186 8.10562 116.796 9.63228C115.674 10.9368 114.09 12.7141 112.04 14.9642C110.974 16.001 110.427 16.5649 109.807 16.9865C109.3 17.5162 111.396 15.8984 112.011 15.4883C113.748 14.3319 115.395 13.3521 116.825 12.2811C119.103 10.6064 121.473 8.86895 123.928 7.08594C124.065 6.9891 124.412 6.87517 124.971 6.75554C125.261 6.69858 125.5 6.67579 125.694 6.67579C126.002 6.67579 126.053 6.76124 125.836 6.93783L125.842 6.95493Z" fill="#E30613"/>
</svg>
